<svg version="1.1" id="Layer_1" xmlns="http://www.w3.org/2000/svg" xmlns:xlink="http://www.w3.org/1999/xlink" x="0px" y="0px"
	 width="100%" viewBox="0 0 1280 1280" enable-background="new 0 0 1280 1280" xml:space="preserve">
<path fill="#330000" opacity="1.000000" stroke="none" 
	d="
M1.000007,1092.000000 
	C1.000000,791.637329 1.000000,491.274597 1.328842,190.293152 
	C2.132864,188.484741 2.779103,187.333420 3.055782,186.099258 
	C5.019818,177.338303 6.424885,168.421463 8.900296,159.810776 
	C23.381973,109.436432 52.340797,69.251938 95.237061,39.267403 
	C122.406967,20.275618 152.558365,8.354978 185.337387,3.130056 
	C186.963455,2.870865 188.449020,1.730210 190.000000,0.999998 
	C490.362701,1.000000 790.725403,1.000000 1091.706787,1.328870 
	C1093.515015,2.132897 1094.665405,2.796685 1095.900269,3.052240 
	C1103.231323,4.569369 1110.705200,5.542468 1117.905518,7.519912 
	C1161.788696,19.571638 1198.958252,42.395454 1228.657837,77.102753 
	C1254.821411,107.677650 1271.474976,142.684525 1278.218750,182.399597 
	C1278.717896,185.339081 1280.053345,188.136536 1281.000000,191.000015 
	C1281.000000,490.696045 1281.000000,790.392090 1280.667603,1090.709106 
	C1279.871338,1092.691040 1279.277100,1094.022705 1278.964355,1095.417480 
	C1276.708984,1105.479248 1275.190552,1115.762207 1272.175659,1125.587524 
	C1259.826416,1165.832397 1237.936035,1199.943604 1205.996460,1227.644409 
	C1175.151367,1254.396118 1139.778320,1271.245728 1099.599365,1278.217529 
	C1096.660522,1278.727417 1093.863159,1280.053345 1091.000000,1281.000000 
	C791.303955,1281.000000 491.607941,1281.000000 191.290817,1280.667725 
	C189.641006,1279.895996 188.648407,1279.209473 187.578339,1279.052979 
	C151.607147,1273.795654 118.976952,1260.389648 89.742172,1238.815430 
	C61.529091,1217.995117 39.560268,1191.895264 23.745571,1160.558838 
	C13.527012,1140.311035 6.807776,1118.999512 3.130134,1096.662476 
	C2.862271,1095.035522 1.730264,1093.550781 1.000007,1092.000000 
M376.861053,495.324158 
	C322.859741,640.558350 268.858398,785.792542 214.696320,931.459106 
	C216.698669,931.587036 217.983337,931.740662 219.268021,931.740906 
	C273.431061,931.752930 327.594208,931.708740 381.756866,931.846069 
	C385.390594,931.855286 386.553955,930.427429 387.542114,927.323914 
	C395.959412,900.887878 404.619324,874.528687 412.956268,848.067688 
	C414.186646,844.162598 415.942352,843.075684 419.952148,843.083801 
	C487.280701,843.219849 554.609619,843.174316 621.938416,843.197205 
	C626.085938,843.198608 631.329468,841.952942 634.069458,843.980896 
	C636.754211,845.968201 636.861511,851.408203 638.149963,855.316345 
	C645.997131,879.118347 653.947205,902.887085 661.623474,926.744019 
	C662.827576,930.486267 664.297791,931.877808 668.456787,931.864990 
	C723.619202,931.695068 778.782349,931.754089 833.945312,931.739990 
	C835.673523,931.739563 837.401672,931.568237 839.634766,931.449829 
	C838.049377,926.885803 836.747253,923.008972 835.359985,919.162842 
	C819.356323,874.793884 803.337219,830.430481 787.326904,786.063904 
	C771.359985,741.817627 755.397705,697.569702 739.434326,653.322144 
	C719.137268,597.062500 698.843262,540.801758 678.544250,484.542816 
	C661.688965,437.828369 644.803955,391.124573 628.024475,344.382904 
	C626.887085,341.214508 625.644470,339.637085 621.804871,339.646423 
	C560.809326,339.794861 499.813293,339.777466 438.817566,339.676361 
	C435.604187,339.671051 434.155457,340.725494 433.079651,343.675232 
	C425.455841,364.578949 417.683105,385.428497 409.931305,406.285431 
	C398.991699,435.719452 388.029175,465.144958 376.861053,495.324158 
M974.500244,465.652130 
	C937.086243,465.652130 899.672302,465.652130 862.277649,465.652130 
	C862.277649,621.388184 862.277649,776.390198 862.277649,931.377808 
	C915.096069,931.377808 967.490051,931.377808 1019.885010,931.377808 
	C1019.885010,775.988953 1019.885010,620.973572 1019.885010,465.652100 
	C1004.800598,465.652100 990.150452,465.652100 974.500244,465.652130 
M890.380798,442.146790 
	C914.149292,455.935211 939.662109,458.383087 965.904175,452.364166 
	C1008.023132,442.703735 1032.243774,410.656158 1023.629578,364.199219 
	C1019.359192,341.168457 1004.315125,325.633942 983.252197,315.895538 
	C968.114502,308.896667 952.046936,307.666473 935.635864,307.921021 
	C921.578247,308.139099 908.309326,311.225708 895.799805,317.448425 
	C864.668396,332.934357 852.098877,364.697815 857.280579,394.160858 
	C860.869690,414.568298 871.856750,430.737915 890.380798,442.146790 
z"/>
<path fill="#000000" opacity="1.000000" stroke="none" 
	d="
M1091.468628,1281.000000 
	C1093.863159,1280.053345 1096.660522,1278.727417 1099.599365,1278.217529 
	C1139.778320,1271.245728 1175.151367,1254.396118 1205.996460,1227.644409 
	C1237.936035,1199.943604 1259.826416,1165.832397 1272.175659,1125.587524 
	C1275.190552,1115.762207 1276.708984,1105.479248 1278.964355,1095.417480 
	C1279.277100,1094.022705 1279.871338,1092.691040 1280.667603,1091.165039 
	C1281.000000,1154.260376 1281.000000,1217.520752 1281.000000,1281.000000 
	C1217.979248,1281.000000 1154.958252,1281.000000 1091.468628,1281.000000 
z"/>
<path fill="#000000" opacity="1.000000" stroke="none" 
	d="
M1.000007,1092.468628 
	C1.730264,1093.550781 2.862271,1095.035522 3.130134,1096.662476 
	C6.807776,1118.999512 13.527012,1140.311035 23.745571,1160.558838 
	C39.560268,1191.895264 61.529091,1217.995117 89.742172,1238.815430 
	C118.976952,1260.389648 151.607147,1273.795654 187.578339,1279.052979 
	C188.648407,1279.209473 189.641006,1279.895996 190.834869,1280.667725 
	C127.739830,1281.000000 64.479668,1281.000000 1.000000,1281.000000 
	C1.000000,1218.312622 1.000000,1155.624878 1.000007,1092.468628 
z"/>
<path fill="#000000" opacity="1.000000" stroke="none" 
	d="
M1281.000000,190.531357 
	C1280.053345,188.136536 1278.717896,185.339081 1278.218750,182.399597 
	C1271.474976,142.684525 1254.821411,107.677650 1228.657837,77.102753 
	C1198.958252,42.395454 1161.788696,19.571638 1117.905518,7.519912 
	C1110.705200,5.542468 1103.231323,4.569369 1095.900269,3.052240 
	C1094.665405,2.796685 1093.515015,2.132897 1092.162842,1.328870 
	C1154.927246,1.000000 1217.854370,1.000000 1281.000000,1.000000 
	C1281.000000,64.020729 1281.000000,127.041702 1281.000000,190.531357 
z"/>
<path fill="#000000" opacity="1.000000" stroke="none" 
	d="
M189.531342,0.999998 
	C188.449020,1.730210 186.963455,2.870865 185.337387,3.130056 
	C152.558365,8.354978 122.406967,20.275618 95.237061,39.267403 
	C52.340797,69.251938 23.381973,109.436432 8.900296,159.810776 
	C6.424885,168.421463 5.019818,177.338303 3.055782,186.099258 
	C2.779103,187.333420 2.132864,188.484741 1.328842,189.837204 
	C1.000000,127.072975 1.000000,64.145943 1.000000,1.000000 
	C63.687389,1.000000 126.375038,1.000000 189.531342,0.999998 
z"/>
<path fill="#FF9A00" opacity="1.000000" stroke="none" 
	d="
M376.968750,494.949158 
	C388.029175,465.144958 398.991699,435.719452 409.931305,406.285431 
	C417.683105,385.428497 425.455841,364.578949 433.079651,343.675232 
	C434.155457,340.725494 435.604187,339.671051 438.817566,339.676361 
	C499.813293,339.777466 560.809326,339.794861 621.804871,339.646423 
	C625.644470,339.637085 626.887085,341.214508 628.024475,344.382904 
	C644.803955,391.124573 661.688965,437.828369 678.544250,484.542816 
	C698.843262,540.801758 719.137268,597.062500 739.434326,653.322144 
	C755.397705,697.569702 771.359985,741.817627 787.326904,786.063904 
	C803.337219,830.430481 819.356323,874.793884 835.359985,919.162842 
	C836.747253,923.008972 838.049377,926.885803 839.634766,931.449829 
	C837.401672,931.568237 835.673523,931.739563 833.945312,931.739990 
	C778.782349,931.754089 723.619202,931.695068 668.456787,931.864990 
	C664.297791,931.877808 662.827576,930.486267 661.623474,926.744019 
	C653.947205,902.887085 645.997131,879.118347 638.149963,855.316345 
	C636.861511,851.408203 636.754211,845.968201 634.069458,843.980896 
	C631.329468,841.952942 626.085938,843.198608 621.938416,843.197205 
	C554.609619,843.174316 487.280701,843.219849 419.952148,843.083801 
	C415.942352,843.075684 414.186646,844.162598 412.956268,848.067688 
	C404.619324,874.528687 395.959412,900.887878 387.542114,927.323914 
	C386.553955,930.427429 385.390594,931.855286 381.756866,931.846069 
	C327.594208,931.708740 273.431061,931.752930 219.268021,931.740906 
	C217.983337,931.740662 216.698669,931.587036 214.696320,931.459106 
	C268.858398,785.792542 322.859741,640.558350 376.968750,494.949158 
M488.333557,614.792847 
	C479.757751,641.435181 471.181915,668.077515 462.435944,695.248474 
	C504.160309,695.248474 545.044312,695.248474 586.815430,695.248474 
	C566.103088,631.087341 545.567261,567.473206 524.596558,502.511963 
	C512.291443,540.697021 500.470215,577.380615 488.333557,614.792847 
z"/>
<path fill="#FF9A00" opacity="1.000000" stroke="none" 
	d="
M975.000244,465.652100 
	C990.150452,465.652100 1004.800598,465.652100 1019.885010,465.652100 
	C1019.885010,620.973572 1019.885010,775.988953 1019.885010,931.377808 
	C967.490051,931.377808 915.096069,931.377808 862.277649,931.377808 
	C862.277649,776.390198 862.277649,621.388184 862.277649,465.652130 
	C899.672302,465.652130 937.086243,465.652130 975.000244,465.652100 
z"/>
<path fill="#FE9A00" opacity="1.000000" stroke="none" 
	d="
M890.057007,441.981934 
	C871.856750,430.737915 860.869690,414.568298 857.280579,394.160858 
	C852.098877,364.697815 864.668396,332.934357 895.799805,317.448425 
	C908.309326,311.225708 921.578247,308.139099 935.635864,307.921021 
	C952.046936,307.666473 968.114502,308.896667 983.252197,315.895538 
	C1004.315125,325.633942 1019.359192,341.168457 1023.629578,364.199219 
	C1032.243774,410.656158 1008.023132,442.703735 965.904175,452.364166 
	C939.662109,458.383087 914.149292,455.935211 890.057007,441.981934 
z"/>
<path fill="#340100" opacity="1.000000" stroke="none" 
	d="
M488.491241,614.428528 
	C500.470215,577.380615 512.291443,540.697021 524.596558,502.511963 
	C545.567261,567.473206 566.103088,631.087341 586.815430,695.248474 
	C545.044312,695.248474 504.160309,695.248474 462.435944,695.248474 
	C471.181915,668.077515 479.757751,641.435181 488.491241,614.428528 
z"/>
</svg>